<mxfile host="Electron" agent="Mozilla/5.0 (Windows NT 10.0; Win64; x64) AppleWebKit/537.36 (KHTML, like Gecko) draw.io/26.2.2 Chrome/134.0.6998.178 Electron/35.1.2 Safari/537.36" version="26.2.2">
  <diagram name="Страница — 1" id="SVgKzfAzc47woYF4sVIR">
    <mxGraphModel dx="2184" dy="1650" grid="1" gridSize="10" guides="1" tooltips="1" connect="1" arrows="1" fold="1" page="1" pageScale="1" pageWidth="827" pageHeight="1169" math="0" shadow="0">
      <root>
        <mxCell id="0" />
        <mxCell id="1" parent="0" />
        <mxCell id="uWFS6NgJ9AG8Ibt9EDaT-5" style="edgeStyle=orthogonalEdgeStyle;rounded=0;orthogonalLoop=1;jettySize=auto;html=1;" parent="1" source="uWFS6NgJ9AG8Ibt9EDaT-1" edge="1">
          <mxGeometry relative="1" as="geometry">
            <mxPoint x="280" y="195" as="targetPoint" />
          </mxGeometry>
        </mxCell>
        <mxCell id="uWFS6NgJ9AG8Ibt9EDaT-86" value="Events" style="edgeLabel;html=1;align=center;verticalAlign=middle;resizable=0;points=[];" parent="uWFS6NgJ9AG8Ibt9EDaT-5" vertex="1" connectable="0">
          <mxGeometry x="-0.5268" y="3" relative="1" as="geometry">
            <mxPoint as="offset" />
          </mxGeometry>
        </mxCell>
        <mxCell id="uWFS6NgJ9AG8Ibt9EDaT-1" value="&lt;font style=&quot;font-size: 27px;&quot;&gt;UI&lt;/font&gt;" style="whiteSpace=wrap;html=1;aspect=fixed;" parent="1" vertex="1">
          <mxGeometry x="60" y="130" width="130" height="130" as="geometry" />
        </mxCell>
        <mxCell id="uWFS6NgJ9AG8Ibt9EDaT-4" value="" style="endArrow=none;dashed=1;html=1;rounded=0;" parent="1" edge="1">
          <mxGeometry width="50" height="50" relative="1" as="geometry">
            <mxPoint x="280" y="320" as="sourcePoint" />
            <mxPoint x="280" y="80" as="targetPoint" />
            <Array as="points">
              <mxPoint x="280" y="200" />
              <mxPoint x="280" y="140" />
            </Array>
          </mxGeometry>
        </mxCell>
        <mxCell id="uWFS6NgJ9AG8Ibt9EDaT-51" value="" style="group" parent="1" vertex="1" connectable="0">
          <mxGeometry x="20" y="420" width="490" height="770" as="geometry" />
        </mxCell>
        <mxCell id="uWFS6NgJ9AG8Ibt9EDaT-8" value="&lt;font style=&quot;font-size: 14px;&quot;&gt;Generate Points Task&lt;/font&gt;" style="shape=umlFrame;whiteSpace=wrap;html=1;pointerEvents=0;width=140;height=40;" parent="uWFS6NgJ9AG8Ibt9EDaT-51" vertex="1">
          <mxGeometry y="10" width="490" height="760" as="geometry" />
        </mxCell>
        <mxCell id="uWFS6NgJ9AG8Ibt9EDaT-19" style="edgeStyle=orthogonalEdgeStyle;rounded=0;orthogonalLoop=1;jettySize=auto;html=1;entryX=0.5;entryY=0;entryDx=0;entryDy=0;" parent="uWFS6NgJ9AG8Ibt9EDaT-51" source="uWFS6NgJ9AG8Ibt9EDaT-15" target="uWFS6NgJ9AG8Ibt9EDaT-17" edge="1">
          <mxGeometry relative="1" as="geometry" />
        </mxCell>
        <mxCell id="uWFS6NgJ9AG8Ibt9EDaT-15" value="Try Cancel" style="rounded=0;whiteSpace=wrap;html=1;" parent="uWFS6NgJ9AG8Ibt9EDaT-51" vertex="1">
          <mxGeometry x="320" y="150" width="120" height="60" as="geometry" />
        </mxCell>
        <mxCell id="uWFS6NgJ9AG8Ibt9EDaT-17" value="Start Generate Thread Task" style="rounded=0;whiteSpace=wrap;html=1;" parent="uWFS6NgJ9AG8Ibt9EDaT-51" vertex="1">
          <mxGeometry x="180" y="220" width="120" height="60" as="geometry" />
        </mxCell>
        <mxCell id="uWFS6NgJ9AG8Ibt9EDaT-47" style="edgeStyle=orthogonalEdgeStyle;rounded=0;orthogonalLoop=1;jettySize=auto;html=1;entryX=0.5;entryY=0;entryDx=0;entryDy=0;" parent="uWFS6NgJ9AG8Ibt9EDaT-51" source="uWFS6NgJ9AG8Ibt9EDaT-20" target="uWFS6NgJ9AG8Ibt9EDaT-46" edge="1">
          <mxGeometry relative="1" as="geometry">
            <Array as="points">
              <mxPoint x="80" y="550" />
              <mxPoint x="230" y="550" />
            </Array>
          </mxGeometry>
        </mxCell>
        <mxCell id="uWFS6NgJ9AG8Ibt9EDaT-20" value="" style="rounded=0;whiteSpace=wrap;html=1;" parent="uWFS6NgJ9AG8Ibt9EDaT-51" vertex="1">
          <mxGeometry x="20" y="300" width="120" height="230" as="geometry" />
        </mxCell>
        <mxCell id="uWFS6NgJ9AG8Ibt9EDaT-21" value="" style="endArrow=block;startArrow=block;endFill=1;startFill=1;html=1;rounded=0;entryX=0;entryY=0.5;entryDx=0;entryDy=0;exitX=0.5;exitY=0;exitDx=0;exitDy=0;" parent="uWFS6NgJ9AG8Ibt9EDaT-51" source="uWFS6NgJ9AG8Ibt9EDaT-20" target="uWFS6NgJ9AG8Ibt9EDaT-17" edge="1">
          <mxGeometry width="160" relative="1" as="geometry">
            <mxPoint x="70" y="490" as="sourcePoint" />
            <mxPoint x="230" y="490" as="targetPoint" />
            <Array as="points">
              <mxPoint x="80" y="250" />
            </Array>
          </mxGeometry>
        </mxCell>
        <mxCell id="uWFS6NgJ9AG8Ibt9EDaT-22" value="" style="html=1;points=[[0,0,0,0,5],[0,1,0,0,-5],[1,0,0,0,5],[1,1,0,0,-5]];perimeter=orthogonalPerimeter;outlineConnect=0;targetShapes=umlLifeline;portConstraint=eastwest;newEdgeStyle={&quot;curved&quot;:0,&quot;rounded&quot;:0};" parent="uWFS6NgJ9AG8Ibt9EDaT-51" vertex="1">
          <mxGeometry x="470" y="320" width="10" height="80" as="geometry" />
        </mxCell>
        <mxCell id="uWFS6NgJ9AG8Ibt9EDaT-23" value="dispatch Generte for IGeneratePointsModel" style="html=1;verticalAlign=bottom;endArrow=block;curved=0;rounded=0;entryX=0;entryY=0;entryDx=0;entryDy=5;" parent="uWFS6NgJ9AG8Ibt9EDaT-51" target="uWFS6NgJ9AG8Ibt9EDaT-22" edge="1">
          <mxGeometry x="-0.125" y="5" relative="1" as="geometry">
            <mxPoint x="140" y="325" as="sourcePoint" />
            <mxPoint as="offset" />
          </mxGeometry>
        </mxCell>
        <mxCell id="uWFS6NgJ9AG8Ibt9EDaT-24" value="return Vec&amp;lt;Points2D&amp;gt;" style="html=1;verticalAlign=bottom;endArrow=open;dashed=1;endSize=8;curved=0;rounded=0;exitX=0;exitY=1;exitDx=0;exitDy=-5;" parent="uWFS6NgJ9AG8Ibt9EDaT-51" source="uWFS6NgJ9AG8Ibt9EDaT-22" edge="1">
          <mxGeometry relative="1" as="geometry">
            <mxPoint x="140" y="395" as="targetPoint" />
          </mxGeometry>
        </mxCell>
        <mxCell id="uWFS6NgJ9AG8Ibt9EDaT-36" value="" style="shape=umlDestroy;whiteSpace=wrap;html=1;strokeWidth=3;targetShapes=umlLifeline;" parent="uWFS6NgJ9AG8Ibt9EDaT-51" vertex="1">
          <mxGeometry x="215" y="730" width="30" height="30" as="geometry" />
        </mxCell>
        <mxCell id="uWFS6NgJ9AG8Ibt9EDaT-37" value="Has running task?" style="rhombus;whiteSpace=wrap;html=1;fontColor=#000000;fillColor=#ffffc0;strokeColor=#ff0000;" parent="uWFS6NgJ9AG8Ibt9EDaT-51" vertex="1">
          <mxGeometry x="140" y="60" width="130" height="80" as="geometry" />
        </mxCell>
        <mxCell id="uWFS6NgJ9AG8Ibt9EDaT-38" value="yes" style="edgeStyle=orthogonalEdgeStyle;html=1;align=left;verticalAlign=bottom;endArrow=open;endSize=8;strokeColor=#ff0000;rounded=0;entryX=0.5;entryY=0;entryDx=0;entryDy=0;" parent="uWFS6NgJ9AG8Ibt9EDaT-51" source="uWFS6NgJ9AG8Ibt9EDaT-37" target="uWFS6NgJ9AG8Ibt9EDaT-15" edge="1">
          <mxGeometry x="-1" relative="1" as="geometry">
            <mxPoint x="320" y="180" as="targetPoint" />
          </mxGeometry>
        </mxCell>
        <mxCell id="uWFS6NgJ9AG8Ibt9EDaT-39" value="no" style="edgeStyle=orthogonalEdgeStyle;html=1;align=left;verticalAlign=top;endArrow=open;endSize=8;strokeColor=#ff0000;rounded=0;entryX=0.5;entryY=0;entryDx=0;entryDy=0;" parent="uWFS6NgJ9AG8Ibt9EDaT-51" source="uWFS6NgJ9AG8Ibt9EDaT-37" target="uWFS6NgJ9AG8Ibt9EDaT-17" edge="1">
          <mxGeometry x="-1" relative="1" as="geometry">
            <mxPoint x="180" y="260" as="targetPoint" />
          </mxGeometry>
        </mxCell>
        <mxCell id="uWFS6NgJ9AG8Ibt9EDaT-41" value="Object" style="shape=umlLifeline;perimeter=lifelinePerimeter;whiteSpace=wrap;html=1;container=1;dropTarget=0;collapsible=0;recursiveResize=0;outlineConnect=0;portConstraint=eastwest;newEdgeStyle={&quot;curved&quot;:0,&quot;rounded&quot;:0};" parent="uWFS6NgJ9AG8Ibt9EDaT-51" vertex="1">
          <mxGeometry x="30" y="300" width="100" height="230" as="geometry" />
        </mxCell>
        <mxCell id="uWFS6NgJ9AG8Ibt9EDaT-42" value="" style="html=1;points=[[0,0,0,0,5],[0,1,0,0,-5],[1,0,0,0,5],[1,1,0,0,-5]];perimeter=orthogonalPerimeter;outlineConnect=0;targetShapes=umlLifeline;portConstraint=eastwest;newEdgeStyle={&quot;curved&quot;:0,&quot;rounded&quot;:0};" parent="uWFS6NgJ9AG8Ibt9EDaT-51" vertex="1">
          <mxGeometry x="470" y="420" width="10" height="80" as="geometry" />
        </mxCell>
        <mxCell id="uWFS6NgJ9AG8Ibt9EDaT-43" value="dispatch CreateRenderObject from Points using IRenderFactory" style="html=1;verticalAlign=bottom;endArrow=block;curved=0;rounded=0;entryX=0;entryY=0;entryDx=0;entryDy=5;" parent="uWFS6NgJ9AG8Ibt9EDaT-51" target="uWFS6NgJ9AG8Ibt9EDaT-42" edge="1">
          <mxGeometry relative="1" as="geometry">
            <mxPoint x="140" y="425" as="sourcePoint" />
          </mxGeometry>
        </mxCell>
        <mxCell id="uWFS6NgJ9AG8Ibt9EDaT-44" value="return Vec&amp;lt;IRenderable&amp;gt;" style="html=1;verticalAlign=bottom;endArrow=open;dashed=1;endSize=8;curved=0;rounded=0;exitX=0;exitY=1;exitDx=0;exitDy=-5;" parent="uWFS6NgJ9AG8Ibt9EDaT-51" source="uWFS6NgJ9AG8Ibt9EDaT-42" edge="1">
          <mxGeometry relative="1" as="geometry">
            <mxPoint x="140" y="495" as="targetPoint" />
          </mxGeometry>
        </mxCell>
        <mxCell id="uWFS6NgJ9AG8Ibt9EDaT-46" value="FinishTask Notify Update UI" style="rounded=0;whiteSpace=wrap;html=1;" parent="uWFS6NgJ9AG8Ibt9EDaT-51" vertex="1">
          <mxGeometry x="170" y="600" width="120" height="60" as="geometry" />
        </mxCell>
        <mxCell id="uWFS6NgJ9AG8Ibt9EDaT-48" style="edgeStyle=orthogonalEdgeStyle;rounded=0;orthogonalLoop=1;jettySize=auto;html=1;entryX=0.5;entryY=0.467;entryDx=0;entryDy=0;entryPerimeter=0;" parent="uWFS6NgJ9AG8Ibt9EDaT-51" source="uWFS6NgJ9AG8Ibt9EDaT-46" target="uWFS6NgJ9AG8Ibt9EDaT-36" edge="1">
          <mxGeometry relative="1" as="geometry" />
        </mxCell>
        <mxCell id="uWFS6NgJ9AG8Ibt9EDaT-50" style="edgeStyle=orthogonalEdgeStyle;rounded=0;orthogonalLoop=1;jettySize=auto;html=1;entryX=0.5;entryY=0;entryDx=0;entryDy=0;" parent="uWFS6NgJ9AG8Ibt9EDaT-51" source="uWFS6NgJ9AG8Ibt9EDaT-49" target="uWFS6NgJ9AG8Ibt9EDaT-37" edge="1">
          <mxGeometry relative="1" as="geometry" />
        </mxCell>
        <mxCell id="uWFS6NgJ9AG8Ibt9EDaT-49" value="" style="ellipse;html=1;shape=endState;fillColor=#000000;strokeColor=#ff0000;" parent="uWFS6NgJ9AG8Ibt9EDaT-51" vertex="1">
          <mxGeometry x="190" width="30" height="30" as="geometry" />
        </mxCell>
        <mxCell id="uWFS6NgJ9AG8Ibt9EDaT-64" value="" style="group" parent="1" vertex="1" connectable="0">
          <mxGeometry x="1360" y="80" width="650" height="215" as="geometry" />
        </mxCell>
        <mxCell id="uWFS6NgJ9AG8Ibt9EDaT-56" value="&lt;font style=&quot;font-size: 23px;&quot;&gt;Функциональные требования:&lt;/font&gt;" style="text;html=1;align=center;verticalAlign=middle;whiteSpace=wrap;rounded=0;" parent="uWFS6NgJ9AG8Ibt9EDaT-64" vertex="1">
          <mxGeometry width="330" height="30" as="geometry" />
        </mxCell>
        <mxCell id="uWFS6NgJ9AG8Ibt9EDaT-62" value="&lt;ul style=&quot;color: rgb(26, 26, 26); font-family: &amp;quot;YS Text&amp;quot;, Arial, sans-serif; font-size: 14px; text-align: start; background-color: rgb(255, 255, 255); margin-bottom: 0px; margin-top: 0px;&quot;&gt;&lt;li style=&quot;background-color: transparent; color: rgb(0, 0, 0); font-family: arial, sans-serif; font-size: 11pt; font-variant-numeric: normal; font-variant-east-asian: normal; font-variant-alternates: normal; font-variant-position: normal; font-variant-emoji: normal; list-style-type: disc; vertical-align: baseline; white-space: pre;&quot; dir=&quot;ltr&quot;&gt;&lt;p style=&quot;line-height: 1.38; margin-bottom: 0pt; margin-top: 0pt;&quot; dir=&quot;ltr&quot;&gt;&lt;span style=&quot;background-color: transparent; font-size: 11pt; font-variant-numeric: normal; font-variant-east-asian: normal; font-variant-alternates: normal; font-variant-position: normal; font-variant-emoji: normal; vertical-align: baseline; text-wrap-mode: wrap;&quot;&gt;Рандомно распределяет 50 точек размером 16х16 на виджете размером 800х800.&lt;/span&gt;&lt;/p&gt;&lt;/li&gt;&lt;li style=&quot;background-color: transparent; color: rgb(0, 0, 0); font-family: arial, sans-serif; font-size: 11pt; font-variant-numeric: normal; font-variant-east-asian: normal; font-variant-alternates: normal; font-variant-position: normal; font-variant-emoji: normal; list-style-type: disc; vertical-align: baseline; white-space: pre;&quot; dir=&quot;ltr&quot;&gt;&lt;p style=&quot;line-height: 1.38; margin-bottom: 0pt; margin-top: 0pt;&quot; dir=&quot;ltr&quot;&gt;&lt;span style=&quot;background-color: transparent; font-size: 11pt; font-variant-numeric: normal; font-variant-east-asian: normal; font-variant-alternates: normal; font-variant-position: normal; font-variant-emoji: normal; vertical-align: baseline; text-wrap-mode: wrap;&quot;&gt;Пользователь должен иметь возможность с помощью мыши выделить точку.&lt;/span&gt;&lt;/p&gt;&lt;/li&gt;&lt;li style=&quot;background-color: transparent; color: rgb(0, 0, 0); font-family: arial, sans-serif; font-size: 11pt; font-variant-numeric: normal; font-variant-east-asian: normal; font-variant-alternates: normal; font-variant-position: normal; font-variant-emoji: normal; list-style-type: disc; vertical-align: baseline; white-space: pre;&quot; dir=&quot;ltr&quot;&gt;&lt;p style=&quot;line-height: 1.38; margin-bottom: 0pt; margin-top: 0pt;&quot; dir=&quot;ltr&quot;&gt;&lt;span style=&quot;background-color: transparent; font-size: 11pt; font-variant-numeric: normal; font-variant-east-asian: normal; font-variant-alternates: normal; font-variant-position: normal; font-variant-emoji: normal; vertical-align: baseline; text-wrap-mode: wrap;&quot;&gt;Вокруг выделенной точки нужно визуализировать окружность радиусом 35 пикселей.&lt;/span&gt;&lt;/p&gt;&lt;/li&gt;&lt;li style=&quot;background-color: transparent; color: rgb(0, 0, 0); font-family: arial, sans-serif; font-size: 11pt; font-variant-numeric: normal; font-variant-east-asian: normal; font-variant-alternates: normal; font-variant-position: normal; font-variant-emoji: normal; list-style-type: disc; vertical-align: baseline; white-space: pre;&quot; dir=&quot;ltr&quot;&gt;&lt;p style=&quot;line-height: 1.38; margin-bottom: 0pt; margin-top: 0pt;&quot; dir=&quot;ltr&quot;&gt;&lt;span style=&quot;background-color: transparent; font-size: 11pt; font-variant-numeric: normal; font-variant-east-asian: normal; font-variant-alternates: normal; font-variant-position: normal; font-variant-emoji: normal; vertical-align: baseline; text-wrap-mode: wrap;&quot;&gt;В интерфейсе программы вывести количество точек, находящихся внутри окружности.&lt;/span&gt;&lt;/p&gt;&lt;/li&gt;&lt;li style=&quot;background-color: transparent; color: rgb(0, 0, 0); font-family: arial, sans-serif; font-size: 11pt; font-variant-numeric: normal; font-variant-east-asian: normal; font-variant-alternates: normal; font-variant-position: normal; font-variant-emoji: normal; list-style-type: disc; vertical-align: baseline; white-space: pre;&quot; dir=&quot;ltr&quot;&gt;&lt;p style=&quot;line-height: 1.38; margin-bottom: 0pt; margin-top: 0pt;&quot; dir=&quot;ltr&quot;&gt;&lt;span style=&quot;background-color: transparent; font-size: 11pt; font-variant-numeric: normal; font-variant-east-asian: normal; font-variant-alternates: normal; font-variant-position: normal; font-variant-emoji: normal; vertical-align: baseline; text-wrap-mode: wrap;&quot;&gt;Добавить в интерфейс программы возможность регулировать количество генерируемых точек от 10 до 500 и размер радиуса от 10 до 100.&lt;/span&gt;&lt;/p&gt;&lt;/li&gt;&lt;/ul&gt;" style="text;html=1;align=center;verticalAlign=middle;whiteSpace=wrap;rounded=0;" parent="uWFS6NgJ9AG8Ibt9EDaT-64" vertex="1">
          <mxGeometry width="650" height="215" as="geometry" />
        </mxCell>
        <mxCell id="uWFS6NgJ9AG8Ibt9EDaT-65" value="" style="group" parent="1" vertex="1" connectable="0">
          <mxGeometry x="760" y="20" width="510" height="370" as="geometry" />
        </mxCell>
        <mxCell id="uWFS6NgJ9AG8Ibt9EDaT-52" value="" style="rounded=1;whiteSpace=wrap;html=1;" parent="uWFS6NgJ9AG8Ibt9EDaT-65" vertex="1">
          <mxGeometry y="50" width="510" height="320" as="geometry" />
        </mxCell>
        <mxCell id="uWFS6NgJ9AG8Ibt9EDaT-53" value="&lt;font style=&quot;font-size: 18px;&quot;&gt;UI Example&lt;/font&gt;" style="text;html=1;align=center;verticalAlign=middle;whiteSpace=wrap;rounded=0;" parent="uWFS6NgJ9AG8Ibt9EDaT-65" vertex="1">
          <mxGeometry x="190" width="60" height="30" as="geometry" />
        </mxCell>
        <mxCell id="uWFS6NgJ9AG8Ibt9EDaT-54" value="Main Window" style="text;html=1;align=center;verticalAlign=middle;whiteSpace=wrap;rounded=0;" parent="uWFS6NgJ9AG8Ibt9EDaT-65" vertex="1">
          <mxGeometry x="10" y="60" width="110" height="30" as="geometry" />
        </mxCell>
        <mxCell id="uWFS6NgJ9AG8Ibt9EDaT-55" value="Render Widget:&lt;br&gt;Size - 800x800 default" style="rounded=1;whiteSpace=wrap;html=1;" parent="uWFS6NgJ9AG8Ibt9EDaT-65" vertex="1">
          <mxGeometry x="20" y="90" width="300" height="250" as="geometry" />
        </mxCell>
        <mxCell id="uWFS6NgJ9AG8Ibt9EDaT-57" value="Button Generate" style="rounded=0;whiteSpace=wrap;html=1;" parent="uWFS6NgJ9AG8Ibt9EDaT-65" vertex="1">
          <mxGeometry x="331" y="110" width="169" height="30" as="geometry" />
        </mxCell>
        <mxCell id="uWFS6NgJ9AG8Ibt9EDaT-58" value="Points count:" style="text;html=1;align=left;verticalAlign=middle;whiteSpace=wrap;rounded=0;" parent="uWFS6NgJ9AG8Ibt9EDaT-65" vertex="1">
          <mxGeometry x="330" y="150" width="80" height="30" as="geometry" />
        </mxCell>
        <mxCell id="uWFS6NgJ9AG8Ibt9EDaT-59" value="input" style="rounded=0;whiteSpace=wrap;html=1;" parent="uWFS6NgJ9AG8Ibt9EDaT-65" vertex="1">
          <mxGeometry x="410" y="150" width="90" height="20" as="geometry" />
        </mxCell>
        <mxCell id="uWFS6NgJ9AG8Ibt9EDaT-60" value="Total Points in circle: %d" style="text;html=1;align=left;verticalAlign=middle;whiteSpace=wrap;rounded=0;" parent="uWFS6NgJ9AG8Ibt9EDaT-65" vertex="1">
          <mxGeometry x="330" y="180" width="180" height="30" as="geometry" />
        </mxCell>
        <mxCell id="uWFS6NgJ9AG8Ibt9EDaT-61" value="List for each points in each circle:&lt;br&gt;Circle1.Label:Circle1.Points&lt;br&gt;....&lt;br&gt;CircleN.Label:CircleN.Label" style="rounded=0;whiteSpace=wrap;html=1;" parent="uWFS6NgJ9AG8Ibt9EDaT-65" vertex="1">
          <mxGeometry x="331" y="210" width="169" height="100" as="geometry" />
        </mxCell>
        <mxCell id="uWFS6NgJ9AG8Ibt9EDaT-73" value="" style="group" parent="1" vertex="1" connectable="0">
          <mxGeometry x="1360" y="295" width="400" height="235" as="geometry" />
        </mxCell>
        <mxCell id="uWFS6NgJ9AG8Ibt9EDaT-67" value="&lt;font style=&quot;font-size: 21px;&quot;&gt;Application Flow&lt;/font&gt;" style="text;html=1;align=center;verticalAlign=middle;whiteSpace=wrap;rounded=0;" parent="uWFS6NgJ9AG8Ibt9EDaT-73" vertex="1">
          <mxGeometry width="190" height="30" as="geometry" />
        </mxCell>
        <mxCell id="uWFS6NgJ9AG8Ibt9EDaT-68" value="1) Load settings from config&lt;br&gt;&lt;br&gt;&lt;span style=&quot;text-wrap-mode: nowrap;&quot;&gt;2) Get User input and invoke methods, implementing MVC&lt;br&gt;&lt;br&gt;&lt;/span&gt;&lt;span style=&quot;text-wrap-mode: nowrap;&quot;&gt;3) Validate Errors&lt;br&gt;&lt;br&gt;&lt;/span&gt;&lt;span style=&quot;text-wrap-mode: nowrap;&quot;&gt;4) Invoke Model methods&lt;br&gt;&lt;br&gt;5) Update UI&lt;br&gt;&lt;/span&gt;&lt;span style=&quot;text-wrap-mode: nowrap;&quot;&gt;&lt;/span&gt;&lt;span style=&quot;text-wrap-mode: nowrap;&quot;&gt;&lt;/span&gt;" style="text;html=1;align=left;verticalAlign=middle;whiteSpace=wrap;rounded=0;" parent="uWFS6NgJ9AG8Ibt9EDaT-73" vertex="1">
          <mxGeometry x="90" y="85" width="310" height="150" as="geometry" />
        </mxCell>
        <mxCell id="uWFS6NgJ9AG8Ibt9EDaT-69" value="" style="shape=umlLifeline;perimeter=lifelinePerimeter;whiteSpace=wrap;html=1;container=1;dropTarget=0;collapsible=0;recursiveResize=0;outlineConnect=0;portConstraint=eastwest;newEdgeStyle={&quot;curved&quot;:0,&quot;rounded&quot;:0};participant=umlControl;" parent="uWFS6NgJ9AG8Ibt9EDaT-73" vertex="1">
          <mxGeometry x="60" y="35" width="40" height="190" as="geometry" />
        </mxCell>
        <mxCell id="uWFS6NgJ9AG8Ibt9EDaT-83" value="" style="group" parent="1" vertex="1" connectable="0">
          <mxGeometry x="280" y="290" width="430" height="60" as="geometry" />
        </mxCell>
        <mxCell id="uWFS6NgJ9AG8Ibt9EDaT-80" value="End Render Highlit Area" style="rounded=1;whiteSpace=wrap;html=1;" parent="uWFS6NgJ9AG8Ibt9EDaT-83" vertex="1">
          <mxGeometry x="310" width="120" height="60" as="geometry" />
        </mxCell>
        <mxCell id="uWFS6NgJ9AG8Ibt9EDaT-81" value="" style="endArrow=classic;html=1;rounded=0;entryX=-0.01;entryY=0.583;entryDx=0;entryDy=0;entryPerimeter=0;" parent="uWFS6NgJ9AG8Ibt9EDaT-83" target="uWFS6NgJ9AG8Ibt9EDaT-80" edge="1">
          <mxGeometry width="50" height="50" relative="1" as="geometry">
            <mxPoint y="35" as="sourcePoint" />
            <mxPoint x="50" y="-15" as="targetPoint" />
          </mxGeometry>
        </mxCell>
        <mxCell id="uWFS6NgJ9AG8Ibt9EDaT-82" value="&lt;font style=&quot;font-size: 16px;&quot;&gt;On Clicked Render Widget End&lt;/font&gt;" style="edgeLabel;html=1;align=center;verticalAlign=middle;resizable=0;points=[];" parent="uWFS6NgJ9AG8Ibt9EDaT-81" vertex="1" connectable="0">
          <mxGeometry x="-0.3445" y="-1" relative="1" as="geometry">
            <mxPoint x="59" as="offset" />
          </mxGeometry>
        </mxCell>
        <mxCell id="uWFS6NgJ9AG8Ibt9EDaT-84" value="" style="group" parent="1" vertex="1" connectable="0">
          <mxGeometry x="280" y="160" width="430" height="60" as="geometry" />
        </mxCell>
        <mxCell id="uWFS6NgJ9AG8Ibt9EDaT-75" value="Start Render Highlit Area" style="rounded=1;whiteSpace=wrap;html=1;" parent="uWFS6NgJ9AG8Ibt9EDaT-84" vertex="1">
          <mxGeometry x="310" width="120" height="60" as="geometry" />
        </mxCell>
        <mxCell id="uWFS6NgJ9AG8Ibt9EDaT-78" value="" style="endArrow=classic;html=1;rounded=0;entryX=0;entryY=0.5;entryDx=0;entryDy=0;" parent="uWFS6NgJ9AG8Ibt9EDaT-84" target="uWFS6NgJ9AG8Ibt9EDaT-75" edge="1">
          <mxGeometry width="50" height="50" relative="1" as="geometry">
            <mxPoint y="30" as="sourcePoint" />
            <mxPoint x="50" y="-40" as="targetPoint" />
          </mxGeometry>
        </mxCell>
        <mxCell id="uWFS6NgJ9AG8Ibt9EDaT-79" value="&lt;font style=&quot;font-size: 15px;&quot;&gt;On Clicked Render Widget Start&lt;/font&gt;" style="edgeLabel;html=1;align=center;verticalAlign=middle;resizable=0;points=[];" parent="uWFS6NgJ9AG8Ibt9EDaT-78" vertex="1" connectable="0">
          <mxGeometry x="-0.2839" y="2" relative="1" as="geometry">
            <mxPoint x="39" y="2" as="offset" />
          </mxGeometry>
        </mxCell>
        <mxCell id="uWFS6NgJ9AG8Ibt9EDaT-85" value="" style="group" parent="1" vertex="1" connectable="0">
          <mxGeometry x="280" y="50" width="430" height="60" as="geometry" />
        </mxCell>
        <mxCell id="uWFS6NgJ9AG8Ibt9EDaT-6" value="" style="endArrow=classic;html=1;rounded=0;entryX=0;entryY=0.5;entryDx=0;entryDy=0;" parent="uWFS6NgJ9AG8Ibt9EDaT-85" target="uWFS6NgJ9AG8Ibt9EDaT-7" edge="1">
          <mxGeometry width="50" height="50" relative="1" as="geometry">
            <mxPoint y="30" as="sourcePoint" />
            <mxPoint x="120" y="30" as="targetPoint" />
          </mxGeometry>
        </mxCell>
        <mxCell id="uWFS6NgJ9AG8Ibt9EDaT-14" value="&lt;font style=&quot;font-size: 15px;&quot;&gt;On Button Generate Points&lt;/font&gt;" style="edgeLabel;html=1;align=center;verticalAlign=middle;resizable=0;points=[];" parent="uWFS6NgJ9AG8Ibt9EDaT-6" vertex="1" connectable="0">
          <mxGeometry x="-0.1" y="2" relative="1" as="geometry">
            <mxPoint x="15" y="2" as="offset" />
          </mxGeometry>
        </mxCell>
        <mxCell id="uWFS6NgJ9AG8Ibt9EDaT-7" value="&lt;font style=&quot;font-size: 16px;&quot;&gt;Generate Points Task&lt;/font&gt;" style="rounded=1;whiteSpace=wrap;html=1;" parent="uWFS6NgJ9AG8Ibt9EDaT-85" vertex="1">
          <mxGeometry x="310" width="120" height="60" as="geometry" />
        </mxCell>
        <mxCell id="fk3tUwRMxfBhT-qjf-Wo-12" value="" style="ellipse;html=1;shape=endState;fillColor=#000000;strokeColor=#ff0000;" vertex="1" parent="1">
          <mxGeometry x="840" y="830" width="30" height="30" as="geometry" />
        </mxCell>
        <mxCell id="fk3tUwRMxfBhT-qjf-Wo-13" value="" style="group" vertex="1" connectable="0" parent="1">
          <mxGeometry x="580" y="420" width="580" height="390" as="geometry" />
        </mxCell>
        <mxCell id="fk3tUwRMxfBhT-qjf-Wo-1" value="&lt;font style=&quot;font-size: 15px;&quot;&gt;Start Render Highlight Area&lt;/font&gt;" style="shape=umlFrame;whiteSpace=wrap;html=1;pointerEvents=0;width=180;height=40;" vertex="1" parent="fk3tUwRMxfBhT-qjf-Wo-13">
          <mxGeometry y="10" width="580" height="380" as="geometry" />
        </mxCell>
        <mxCell id="fk3tUwRMxfBhT-qjf-Wo-6" style="edgeStyle=orthogonalEdgeStyle;rounded=0;orthogonalLoop=1;jettySize=auto;html=1;" edge="1" parent="fk3tUwRMxfBhT-qjf-Wo-13" source="fk3tUwRMxfBhT-qjf-Wo-2" target="fk3tUwRMxfBhT-qjf-Wo-3">
          <mxGeometry relative="1" as="geometry" />
        </mxCell>
        <mxCell id="fk3tUwRMxfBhT-qjf-Wo-2" value="" style="ellipse;html=1;shape=endState;fillColor=#000000;strokeColor=#ff0000;" vertex="1" parent="fk3tUwRMxfBhT-qjf-Wo-13">
          <mxGeometry x="260" width="30" height="30" as="geometry" />
        </mxCell>
        <mxCell id="fk3tUwRMxfBhT-qjf-Wo-3" value="Has points?" style="rhombus;whiteSpace=wrap;html=1;fontColor=#000000;fillColor=#ffffc0;strokeColor=#ff0000;" vertex="1" parent="fk3tUwRMxfBhT-qjf-Wo-13">
          <mxGeometry x="230" y="80" width="90" height="55" as="geometry" />
        </mxCell>
        <mxCell id="fk3tUwRMxfBhT-qjf-Wo-4" value="no" style="edgeStyle=orthogonalEdgeStyle;html=1;align=left;verticalAlign=bottom;endArrow=open;endSize=8;strokeColor=#ff0000;rounded=0;" edge="1" source="fk3tUwRMxfBhT-qjf-Wo-3" parent="fk3tUwRMxfBhT-qjf-Wo-13">
          <mxGeometry x="-1" relative="1" as="geometry">
            <mxPoint x="420" y="85" as="targetPoint" />
          </mxGeometry>
        </mxCell>
        <mxCell id="fk3tUwRMxfBhT-qjf-Wo-5" value="yes" style="edgeStyle=orthogonalEdgeStyle;html=1;align=left;verticalAlign=top;endArrow=open;endSize=8;strokeColor=#ff0000;rounded=0;entryX=0.5;entryY=0;entryDx=0;entryDy=0;" edge="1" source="fk3tUwRMxfBhT-qjf-Wo-3" parent="fk3tUwRMxfBhT-qjf-Wo-13" target="fk3tUwRMxfBhT-qjf-Wo-8">
          <mxGeometry x="-1" relative="1" as="geometry">
            <mxPoint x="280" y="165" as="targetPoint" />
            <Array as="points">
              <mxPoint x="275" y="150" />
              <mxPoint x="281" y="150" />
              <mxPoint x="281" y="210" />
            </Array>
          </mxGeometry>
        </mxCell>
        <mxCell id="fk3tUwRMxfBhT-qjf-Wo-7" value="" style="shape=umlDestroy;whiteSpace=wrap;html=1;strokeWidth=3;targetShapes=umlLifeline;" vertex="1" parent="fk3tUwRMxfBhT-qjf-Wo-13">
          <mxGeometry x="410" y="70" width="30" height="30" as="geometry" />
        </mxCell>
        <mxCell id="fk3tUwRMxfBhT-qjf-Wo-8" value="Update Highlit Area&lt;br&gt;end mouse position" style="html=1;whiteSpace=wrap;" vertex="1" parent="fk3tUwRMxfBhT-qjf-Wo-13">
          <mxGeometry x="230" y="210" width="110" height="50" as="geometry" />
        </mxCell>
        <mxCell id="fk3tUwRMxfBhT-qjf-Wo-9" value="" style="shape=umlDestroy;whiteSpace=wrap;html=1;strokeWidth=3;targetShapes=umlLifeline;" vertex="1" parent="fk3tUwRMxfBhT-qjf-Wo-13">
          <mxGeometry x="260" y="330" width="30" height="30" as="geometry" />
        </mxCell>
        <mxCell id="fk3tUwRMxfBhT-qjf-Wo-10" style="edgeStyle=orthogonalEdgeStyle;rounded=0;orthogonalLoop=1;jettySize=auto;html=1;entryX=0.5;entryY=0.367;entryDx=0;entryDy=0;entryPerimeter=0;" edge="1" parent="fk3tUwRMxfBhT-qjf-Wo-13" source="fk3tUwRMxfBhT-qjf-Wo-8" target="fk3tUwRMxfBhT-qjf-Wo-9">
          <mxGeometry relative="1" as="geometry" />
        </mxCell>
        <mxCell id="fk3tUwRMxfBhT-qjf-Wo-39" value="" style="group" vertex="1" connectable="0" parent="1">
          <mxGeometry x="580" y="840" width="580" height="930" as="geometry" />
        </mxCell>
        <mxCell id="fk3tUwRMxfBhT-qjf-Wo-11" value="&lt;span style=&quot;font-size: 15px;&quot;&gt;End Render Highlight Area&lt;/span&gt;" style="shape=umlFrame;whiteSpace=wrap;html=1;pointerEvents=0;width=140;height=40;" vertex="1" parent="fk3tUwRMxfBhT-qjf-Wo-39">
          <mxGeometry width="580" height="930" as="geometry" />
        </mxCell>
        <mxCell id="fk3tUwRMxfBhT-qjf-Wo-16" style="edgeStyle=orthogonalEdgeStyle;rounded=0;orthogonalLoop=1;jettySize=auto;html=1;entryX=0.5;entryY=0;entryDx=0;entryDy=0;" edge="1" parent="fk3tUwRMxfBhT-qjf-Wo-39" source="fk3tUwRMxfBhT-qjf-Wo-12" target="fk3tUwRMxfBhT-qjf-Wo-15">
          <mxGeometry relative="1" as="geometry" />
        </mxCell>
        <mxCell id="fk3tUwRMxfBhT-qjf-Wo-15" value="disable Generate button" style="rounded=0;whiteSpace=wrap;html=1;" vertex="1" parent="fk3tUwRMxfBhT-qjf-Wo-39">
          <mxGeometry x="220" y="110" width="120" height="60" as="geometry" />
        </mxCell>
        <mxCell id="fk3tUwRMxfBhT-qjf-Wo-18" value="Has any running task?" style="rhombus;whiteSpace=wrap;html=1;fontColor=#000000;fillColor=#ffffc0;strokeColor=#ff0000;" vertex="1" parent="fk3tUwRMxfBhT-qjf-Wo-39">
          <mxGeometry x="210" y="190" width="120" height="90" as="geometry" />
        </mxCell>
        <mxCell id="fk3tUwRMxfBhT-qjf-Wo-19" value="yes" style="edgeStyle=orthogonalEdgeStyle;html=1;align=left;verticalAlign=bottom;endArrow=open;endSize=8;strokeColor=#ff0000;rounded=0;entryX=0.5;entryY=0;entryDx=0;entryDy=0;" edge="1" source="fk3tUwRMxfBhT-qjf-Wo-18" parent="fk3tUwRMxfBhT-qjf-Wo-39" target="fk3tUwRMxfBhT-qjf-Wo-22">
          <mxGeometry x="-1" relative="1" as="geometry">
            <mxPoint x="400" y="230" as="targetPoint" />
          </mxGeometry>
        </mxCell>
        <mxCell id="fk3tUwRMxfBhT-qjf-Wo-20" value="no" style="edgeStyle=orthogonalEdgeStyle;html=1;align=left;verticalAlign=top;endArrow=open;endSize=8;strokeColor=#ff0000;rounded=0;entryX=0.452;entryY=0.023;entryDx=0;entryDy=0;entryPerimeter=0;" edge="1" source="fk3tUwRMxfBhT-qjf-Wo-18" parent="fk3tUwRMxfBhT-qjf-Wo-39" target="fk3tUwRMxfBhT-qjf-Wo-23">
          <mxGeometry x="-1" relative="1" as="geometry">
            <mxPoint x="260" y="310" as="targetPoint" />
            <Array as="points">
              <mxPoint x="270" y="295" />
              <mxPoint x="280" y="295" />
              <mxPoint x="280" y="310" />
              <mxPoint x="265" y="310" />
            </Array>
          </mxGeometry>
        </mxCell>
        <mxCell id="fk3tUwRMxfBhT-qjf-Wo-22" value="Try Cancel" style="html=1;whiteSpace=wrap;" vertex="1" parent="fk3tUwRMxfBhT-qjf-Wo-39">
          <mxGeometry x="360" y="270" width="110" height="50" as="geometry" />
        </mxCell>
        <mxCell id="fk3tUwRMxfBhT-qjf-Wo-23" value="Start Generate Area" style="html=1;whiteSpace=wrap;" vertex="1" parent="fk3tUwRMxfBhT-qjf-Wo-39">
          <mxGeometry x="215" y="370" width="110" height="50" as="geometry" />
        </mxCell>
        <mxCell id="fk3tUwRMxfBhT-qjf-Wo-36" style="edgeStyle=orthogonalEdgeStyle;rounded=0;orthogonalLoop=1;jettySize=auto;html=1;entryX=0.5;entryY=0;entryDx=0;entryDy=0;" edge="1" parent="fk3tUwRMxfBhT-qjf-Wo-39" source="fk3tUwRMxfBhT-qjf-Wo-25" target="fk3tUwRMxfBhT-qjf-Wo-35">
          <mxGeometry relative="1" as="geometry">
            <Array as="points">
              <mxPoint x="85" y="730" />
              <mxPoint x="245" y="730" />
            </Array>
          </mxGeometry>
        </mxCell>
        <mxCell id="fk3tUwRMxfBhT-qjf-Wo-25" value="" style="html=1;whiteSpace=wrap;" vertex="1" parent="fk3tUwRMxfBhT-qjf-Wo-39">
          <mxGeometry x="30" y="430" width="110" height="280" as="geometry" />
        </mxCell>
        <mxCell id="fk3tUwRMxfBhT-qjf-Wo-26" value="" style="endArrow=block;startArrow=block;endFill=1;startFill=1;html=1;rounded=0;entryX=0;entryY=0.5;entryDx=0;entryDy=0;exitX=0.5;exitY=0;exitDx=0;exitDy=0;" edge="1" parent="fk3tUwRMxfBhT-qjf-Wo-39" source="fk3tUwRMxfBhT-qjf-Wo-25" target="fk3tUwRMxfBhT-qjf-Wo-23">
          <mxGeometry width="160" relative="1" as="geometry">
            <mxPoint x="40" y="390" as="sourcePoint" />
            <mxPoint x="200" y="390" as="targetPoint" />
            <Array as="points">
              <mxPoint x="85" y="395" />
            </Array>
          </mxGeometry>
        </mxCell>
        <mxCell id="fk3tUwRMxfBhT-qjf-Wo-27" value=":Object" style="shape=umlLifeline;perimeter=lifelinePerimeter;whiteSpace=wrap;html=1;container=1;dropTarget=0;collapsible=0;recursiveResize=0;outlineConnect=0;portConstraint=eastwest;newEdgeStyle={&quot;curved&quot;:0,&quot;rounded&quot;:0};" vertex="1" parent="fk3tUwRMxfBhT-qjf-Wo-39">
          <mxGeometry x="35" y="430" width="100" height="280" as="geometry" />
        </mxCell>
        <mxCell id="fk3tUwRMxfBhT-qjf-Wo-28" value="" style="html=1;points=[[0,0,0,0,5],[0,1,0,0,-5],[1,0,0,0,5],[1,1,0,0,-5]];perimeter=orthogonalPerimeter;outlineConnect=0;targetShapes=umlLifeline;portConstraint=eastwest;newEdgeStyle={&quot;curved&quot;:0,&quot;rounded&quot;:0};" vertex="1" parent="fk3tUwRMxfBhT-qjf-Wo-39">
          <mxGeometry x="520" y="470" width="10" height="80" as="geometry" />
        </mxCell>
        <mxCell id="fk3tUwRMxfBhT-qjf-Wo-29" value="dispatch Find Points for Circle Area" style="html=1;verticalAlign=bottom;endArrow=block;curved=0;rounded=0;entryX=0;entryY=0;entryDx=0;entryDy=5;" edge="1" target="fk3tUwRMxfBhT-qjf-Wo-28" parent="fk3tUwRMxfBhT-qjf-Wo-39">
          <mxGeometry relative="1" as="geometry">
            <mxPoint x="140" y="475" as="sourcePoint" />
          </mxGeometry>
        </mxCell>
        <mxCell id="fk3tUwRMxfBhT-qjf-Wo-30" value="return Vec&amp;lt;PointGroups&amp;gt;" style="html=1;verticalAlign=bottom;endArrow=open;dashed=1;endSize=8;curved=0;rounded=0;exitX=0;exitY=1;exitDx=0;exitDy=-5;" edge="1" source="fk3tUwRMxfBhT-qjf-Wo-28" parent="fk3tUwRMxfBhT-qjf-Wo-39">
          <mxGeometry relative="1" as="geometry">
            <mxPoint x="140" y="545" as="targetPoint" />
          </mxGeometry>
        </mxCell>
        <mxCell id="fk3tUwRMxfBhT-qjf-Wo-31" value="" style="html=1;points=[[0,0,0,0,5],[0,1,0,0,-5],[1,0,0,0,5],[1,1,0,0,-5]];perimeter=orthogonalPerimeter;outlineConnect=0;targetShapes=umlLifeline;portConstraint=eastwest;newEdgeStyle={&quot;curved&quot;:0,&quot;rounded&quot;:0};" vertex="1" parent="fk3tUwRMxfBhT-qjf-Wo-39">
          <mxGeometry x="520" y="610" width="10" height="80" as="geometry" />
        </mxCell>
        <mxCell id="fk3tUwRMxfBhT-qjf-Wo-32" value="dispatch CreateRenderObject&amp;nbsp;from PointGroups using IRenderFactory" style="html=1;verticalAlign=bottom;endArrow=block;curved=0;rounded=0;entryX=0;entryY=0;entryDx=0;entryDy=5;" edge="1" target="fk3tUwRMxfBhT-qjf-Wo-31" parent="fk3tUwRMxfBhT-qjf-Wo-39">
          <mxGeometry relative="1" as="geometry">
            <mxPoint x="140" y="615" as="sourcePoint" />
          </mxGeometry>
        </mxCell>
        <mxCell id="fk3tUwRMxfBhT-qjf-Wo-33" value="return" style="html=1;verticalAlign=bottom;endArrow=open;dashed=1;endSize=8;curved=0;rounded=0;exitX=0;exitY=1;exitDx=0;exitDy=-5;" edge="1" source="fk3tUwRMxfBhT-qjf-Wo-31" parent="fk3tUwRMxfBhT-qjf-Wo-39">
          <mxGeometry relative="1" as="geometry">
            <mxPoint x="140" y="685" as="targetPoint" />
          </mxGeometry>
        </mxCell>
        <mxCell id="fk3tUwRMxfBhT-qjf-Wo-35" value="FinishTask Notify Update UI" style="html=1;whiteSpace=wrap;" vertex="1" parent="fk3tUwRMxfBhT-qjf-Wo-39">
          <mxGeometry x="190" y="780" width="110" height="50" as="geometry" />
        </mxCell>
        <mxCell id="fk3tUwRMxfBhT-qjf-Wo-37" value="" style="shape=umlDestroy;whiteSpace=wrap;html=1;strokeWidth=3;targetShapes=umlLifeline;" vertex="1" parent="fk3tUwRMxfBhT-qjf-Wo-39">
          <mxGeometry x="230" y="890" width="30" height="30" as="geometry" />
        </mxCell>
        <mxCell id="fk3tUwRMxfBhT-qjf-Wo-38" style="edgeStyle=orthogonalEdgeStyle;rounded=0;orthogonalLoop=1;jettySize=auto;html=1;entryX=0.524;entryY=0.514;entryDx=0;entryDy=0;entryPerimeter=0;" edge="1" parent="fk3tUwRMxfBhT-qjf-Wo-39" source="fk3tUwRMxfBhT-qjf-Wo-35" target="fk3tUwRMxfBhT-qjf-Wo-37">
          <mxGeometry relative="1" as="geometry" />
        </mxCell>
      </root>
    </mxGraphModel>
  </diagram>
</mxfile>
